<svg version="1.1" id="Layer_1" xmlns="http://www.w3.org/2000/svg" xmlns:xlink="http://www.w3.org/1999/xlink" x="0px" y="0px"
	 width="100%" viewBox="0 0 1200 1200" enable-background="new 0 0 1200 1200" xml:space="preserve">
<path fill="#14274F" opacity="1.000000" stroke="none" 
	d="
M806.000000,1201.000000 
	C537.333313,1201.000000 269.166656,1201.000000 1.000000,1201.000000 
	C1.000000,801.000000 1.000000,401.000000 1.000000,1.000000 
	C401.000000,1.000000 801.000000,1.000000 1201.000000,1.000000 
	C1201.000000,401.000000 1201.000000,801.000000 1201.000000,1201.000000 
	C1069.500000,1201.000000 938.000000,1201.000000 806.000000,1201.000000 
M827.896240,834.667297 
	C829.524292,834.755371 831.152344,834.843384 833.017334,834.944275 
	C833.017334,852.736450 833.017334,870.296509 833.017334,887.802063 
	C830.833679,888.218384 828.934753,888.580444 826.347717,888.786987 
	C825.890259,888.755981 825.432800,888.724976 824.200989,888.345154 
	C820.703186,888.816956 818.450317,887.484192 816.636719,884.300476 
	C813.354858,878.539429 809.573486,873.063171 806.006470,867.464355 
	C799.214722,856.804199 798.943604,856.593872 806.605591,846.607483 
	C810.707397,841.261353 812.157715,832.489624 822.180542,833.727661 
	C819.340332,829.947693 804.220886,830.188110 802.200928,833.964600 
	C805.095520,833.964600 807.705872,833.964600 810.503784,834.173523 
	C810.503784,834.173523 810.784424,834.165894 810.470764,834.927734 
	C806.348328,840.782166 802.225891,846.636597 797.365479,852.665405 
	C796.907593,852.451660 796.449707,852.237976 795.862488,851.333008 
	C792.536743,845.763367 789.211060,840.193787 785.651123,834.231934 
	C788.535339,834.059265 790.774414,833.925293 793.491333,833.839722 
	C793.865356,833.654358 793.941711,833.384644 793.804932,832.190491 
	C793.503357,831.864075 793.203369,831.253723 792.899902,831.252014 
	C779.516418,831.176147 766.132446,831.133789 752.749268,831.205627 
	C752.255920,831.208313 751.768860,832.389832 751.168884,833.489929 
	C751.168884,833.489929 751.500488,833.838074 751.500488,833.838074 
	C751.500488,833.838074 751.978943,833.791260 752.809326,833.985596 
	C757.012939,833.185791 759.355774,835.158081 761.433655,838.752747 
	C765.750366,846.220398 770.477722,853.459473 775.258484,860.644775 
	C776.772888,862.920776 776.830505,864.544983 775.292969,866.822449 
	C771.207092,872.874756 767.560730,879.228760 763.357483,885.193604 
	C762.275513,886.729126 759.853455,887.452698 757.914368,888.209351 
	C756.402710,888.799072 754.685425,888.861755 753.059509,889.158630 
	C753.155334,889.635193 753.251160,890.111816 753.346924,890.588379 
	C760.068909,890.588379 766.790894,890.588379 773.512817,890.588379 
	C773.558716,889.999878 773.604614,889.411316 773.650574,888.822815 
	C771.374084,888.727356 769.097656,888.631836 766.390503,887.810669 
	C766.322937,887.537598 766.255432,887.264526 766.768616,886.525085 
	C770.806274,880.231384 774.843994,873.937622 779.121765,867.269653 
	C783.576599,874.386963 787.521057,880.688965 791.375122,887.768372 
	C791.325134,888.024414 791.275208,888.280518 790.368713,888.315369 
	C788.107239,888.480469 785.845764,888.645569 783.584290,888.810669 
	C783.646179,889.472168 783.708069,890.133728 783.769897,890.795288 
	C797.512268,890.795288 811.254578,890.795288 825.667847,890.861145 
	C826.113892,890.807007 826.559875,890.752869 827.906250,890.973999 
	C839.935059,890.973999 851.963867,890.973999 863.992615,890.973999 
	C864.084717,890.396301 864.176758,889.818604 864.268799,889.240845 
	C862.024902,888.710022 859.780945,888.179199 856.959473,887.511780 
	C856.959473,869.168823 856.959473,850.685059 856.959473,832.184143 
	C846.589783,832.184143 836.796204,832.184143 826.521057,832.100708 
	C826.687683,832.854065 826.854370,833.607483 827.896240,834.667297 
M857.034363,529.669250 
	C864.597839,492.399963 864.038086,455.162598 855.919556,418.099060 
	C830.560181,302.324280 730.695068,213.741699 606.597473,207.251465 
	C567.717834,205.218079 529.965271,211.524948 493.726532,226.096344 
	C446.533478,245.072418 407.351685,274.809265 377.274689,315.687286 
	C332.128815,377.045532 315.496521,445.919617 328.244598,521.023132 
	C340.476868,593.087830 376.532318,651.308838 435.985077,693.948669 
	C501.996307,741.292297 575.433899,755.965576 654.547852,737.700928 
	C724.681641,721.509521 779.347229,682.112427 819.113342,622.179321 
	C837.715576,594.143127 849.870911,563.353577 857.034363,529.669250 
M542.505005,891.010498 
	C549.387756,891.010498 556.270569,891.010498 563.153320,891.010498 
	C563.251587,890.464844 563.349915,889.919250 563.448181,889.373596 
	C561.690247,888.810791 559.932251,888.247925 558.027649,887.638123 
	C558.027649,875.733643 557.637268,863.737122 558.245422,851.791504 
	C558.450439,847.765869 560.788757,843.626648 562.963684,840.030090 
	C563.865051,838.539612 566.953857,837.655945 568.933411,837.826355 
	C569.969849,837.915527 571.518005,840.872620 571.540649,842.551819 
	C571.743652,857.666687 571.659241,872.785461 571.659241,887.618652 
	C569.936646,888.296082 568.334229,888.926208 566.731750,889.556335 
	C566.886780,889.898743 567.041809,890.241211 567.196838,890.583618 
	C579.023376,890.583618 590.849915,890.583618 602.676453,890.583618 
	C602.762695,890.122131 602.848999,889.660645 602.935303,889.199158 
	C600.676208,888.704163 598.417175,888.209167 595.831177,887.642578 
	C595.831177,875.507568 595.856812,863.366516 595.823242,851.225586 
	C595.795593,841.225525 592.208923,834.645691 585.038452,832.188354 
	C577.708740,829.676453 564.645264,829.838440 559.625549,838.180176 
	C559.371460,838.602417 558.743469,838.799622 557.724854,839.477356 
	C557.724854,836.676208 557.724854,834.570129 557.724854,832.560303 
	C547.298889,832.560303 537.231079,832.560303 527.163269,832.560303 
	C527.109741,833.060791 527.056213,833.561340 527.002747,834.061829 
	C529.213074,834.411804 531.423462,834.761841 533.861084,835.147827 
	C533.861084,852.700806 533.861084,870.298035 533.861084,887.792847 
	C531.399902,888.247009 529.182373,888.656189 526.964783,889.065369 
	C527.063293,889.713745 527.161743,890.362122 527.260254,891.010498 
	C532.009521,891.010498 536.758789,891.010498 542.505005,891.010498 
M720.455261,885.618225 
	C720.841370,887.347412 721.227478,889.076660 721.572632,890.622375 
	C731.457825,890.622375 740.983765,890.622375 750.509705,890.622375 
	C750.607483,890.163513 750.705261,889.704651 750.803040,889.245789 
	C748.551086,888.723877 746.299194,888.201965 743.601807,887.576782 
	C743.601807,869.212219 743.601807,850.800659 743.601807,832.431885 
	C733.491760,832.431885 723.852051,832.431885 714.212402,832.431885 
	C714.117310,832.862366 714.022217,833.292786 713.927124,833.723267 
	C715.866943,834.295593 717.806824,834.867859 719.854614,835.472046 
	C719.854614,847.408997 719.895264,859.229492 719.819763,871.049194 
	C719.804993,873.364014 719.532288,875.717346 719.044250,877.980835 
	C717.933838,883.131165 714.406372,886.693359 710.923218,885.933899 
	C706.135986,884.890137 707.066101,880.564026 707.007507,877.374268 
	C706.763062,864.056519 706.860291,850.732483 706.833313,837.410767 
	C706.829773,835.666931 706.832825,833.923096 706.832825,832.519287 
	C696.089294,832.519287 686.131226,832.519287 676.173096,832.519287 
	C676.116638,832.994385 676.060181,833.469543 676.003723,833.944641 
	C678.191162,834.344482 680.378601,834.744324 683.085693,835.239197 
	C683.085693,836.656128 683.085510,838.285522 683.085815,839.914917 
	C683.087646,851.238708 682.961243,862.564453 683.129822,873.885803 
	C683.278992,883.905396 688.993896,890.952515 697.721680,891.873230 
	C706.011719,892.747742 714.034363,892.243896 720.455261,885.618225 
M637.695312,838.500183 
	C637.695312,828.091125 637.695312,817.682007 637.695312,806.982605 
	C640.677856,806.982605 642.995361,807.117432 645.288940,806.941101 
	C647.221863,806.792419 649.126953,806.282288 651.044312,805.932068 
	C650.925903,805.437805 650.807434,804.943481 650.688965,804.449219 
	C635.555359,804.449219 620.421753,804.449219 605.288086,804.449219 
	C605.192566,805.009644 605.097046,805.570129 605.001526,806.130554 
	C607.513733,806.596619 610.026001,807.062622 612.542664,807.529541 
	C612.542664,834.283142 612.542664,860.886597 612.542664,887.690430 
	C610.025452,887.923218 607.656616,888.142273 605.287720,888.361328 
	C605.173340,888.969116 605.058899,889.576965 604.944458,890.184753 
	C606.580505,890.558350 608.215332,891.250488 609.852783,891.256897 
	C629.164795,891.332397 648.477234,891.311829 667.789551,891.291931 
	C669.221863,891.290466 670.654053,891.100098 672.239685,890.986572 
	C673.012024,881.069397 673.753235,871.552246 674.494385,862.035034 
	C673.983948,861.749756 673.473511,861.464417 672.963013,861.179138 
	C671.837646,862.425110 670.538391,863.555298 669.617981,864.937744 
	C666.309326,869.907715 663.569885,875.327271 659.795288,879.899902 
	C654.226807,886.645874 646.613037,888.834473 637.695312,887.733765 
	C637.695312,871.423157 637.695312,855.461670 637.695312,838.500183 
M323.734802,864.316162 
	C320.434113,869.498047 317.581512,875.045227 313.725800,879.774658 
	C308.192200,886.562073 300.572540,888.827393 291.914093,887.769226 
	C291.914093,860.713806 291.914093,834.002625 291.914093,807.326477 
	C303.980286,806.265076 303.980286,806.265076 304.604340,804.461182 
	C289.444244,804.461182 274.311829,804.461182 259.179413,804.461182 
	C259.085266,805.015137 258.991119,805.569092 258.896973,806.123047 
	C261.267426,806.583130 263.637878,807.043274 266.129364,807.526855 
	C266.129364,834.224670 266.129364,860.943359 266.129364,887.783936 
	C263.613312,887.971375 261.402344,888.136047 259.191376,888.300781 
	C259.073883,888.916992 258.956390,889.533203 258.838898,890.149414 
	C260.287354,890.538757 261.734558,891.261597 263.184479,891.267151 
	C283.016205,891.342590 302.848328,891.326965 322.680298,891.297913 
	C323.771698,891.296326 324.862610,890.981079 326.075500,890.792908 
	C326.818268,881.542725 327.542267,872.584167 328.243896,863.623840 
	C328.280609,863.155396 328.127014,862.671997 328.019653,861.884827 
	C327.178406,861.884827 326.290100,861.649780 325.654144,861.949768 
	C324.992828,862.261658 324.575287,863.090454 323.734802,864.316162 
M873.239258,837.814331 
	C869.917664,843.804871 870.071289,850.169128 873.619446,853.558411 
	C877.029663,856.815918 884.769897,857.127502 889.064819,854.180298 
	C894.271484,850.607422 894.389954,843.965515 889.826904,839.910828 
	C888.933289,839.116821 889.236572,835.330383 890.312866,834.273804 
	C893.518311,831.126953 898.226685,833.246948 898.803528,838.376831 
	C899.669678,846.079407 899.755737,853.869690 900.193665,861.997498 
	C896.050110,861.997498 892.685059,861.642334 889.426758,862.080811 
	C884.534546,862.739136 879.561096,863.490234 874.909973,865.056396 
	C869.821350,866.769775 867.659119,871.135742 867.469604,876.424866 
	C867.278870,881.748108 868.768799,886.322449 873.490173,889.338257 
	C881.579651,894.505493 894.590271,892.519714 900.723816,885.221375 
	C906.315613,891.807495 919.144287,894.512329 926.731567,890.704956 
	C932.073669,888.024170 935.099426,879.869263 932.848450,871.688171 
	C932.044678,873.802368 931.562195,874.758606 931.320374,875.772217 
	C930.820251,877.869080 930.772278,880.142578 929.907959,882.059143 
	C929.344604,883.308228 927.671387,884.056763 926.495422,885.029541 
	C925.621399,883.772217 924.222168,882.605530 923.986206,881.238098 
	C923.538147,878.641052 923.757080,875.929016 923.697021,873.264771 
	C923.490723,864.115540 923.673767,854.935608 922.956604,845.826538 
	C922.354736,838.181885 917.667969,832.895081 910.009216,832.128662 
	C901.821960,831.309387 893.442139,831.290649 885.255737,832.070862 
	C881.280640,832.449646 877.555176,835.448425 873.239258,837.814331 
M428.221466,888.651917 
	C429.166595,887.548645 430.111755,886.445435 431.073700,885.322571 
	C438.172729,892.754089 453.025269,894.685669 459.429474,889.191711 
	C463.687531,885.538940 465.781342,876.394470 462.490112,872.341736 
	C462.141327,874.483948 462.208252,876.143494 461.582306,877.478088 
	C460.353241,880.098816 458.539154,884.761353 457.319702,884.651855 
	C453.028168,884.266541 454.277557,879.945801 454.208099,877.070312 
	C453.987000,867.914734 454.223969,858.748047 454.004517,849.592346 
	C453.874115,844.151611 452.284851,839.250427 448.110809,835.222046 
	C441.883240,829.211853 411.483307,829.359619 405.115204,836.271362 
	C400.948853,840.793457 399.894562,848.897339 403.714813,853.131042 
	C407.351776,857.161438 416.337585,857.270325 420.680511,853.336487 
	C424.856720,849.553589 424.470428,843.378784 420.433807,839.947144 
	C419.507446,839.159485 419.638123,835.436157 420.653046,834.375671 
	C423.669006,831.224487 428.454315,832.971313 429.060760,837.726562 
	C430.061920,845.576477 430.202484,853.536194 430.741241,862.008057 
	C426.453430,862.008057 422.943604,861.632263 419.549042,862.097534 
	C414.660736,862.767639 409.671722,863.540405 405.066956,865.210388 
	C400.293060,866.941589 398.196716,871.104736 398.044525,876.295044 
	C397.881592,881.852417 399.125610,886.917297 404.348297,889.443787 
	C411.991852,893.141541 419.932373,893.817627 428.221466,888.651917 
M359.425140,878.583862 
	C358.670563,872.234619 357.915985,865.885376 357.095917,858.984924 
	C363.968201,858.984924 369.757874,858.984924 375.547516,858.984924 
	C381.294159,858.984924 387.040771,858.984924 392.722107,858.984924 
	C393.545288,841.507568 387.014832,832.776428 371.645844,830.355774 
	C368.392365,829.843384 364.991486,829.909241 361.687744,830.135376 
	C346.637543,831.166016 336.208466,840.044983 333.533264,853.903503 
	C329.878784,872.835205 338.062164,887.685181 355.047668,891.261108 
	C361.379822,892.594177 368.318115,892.459961 374.763428,891.515930 
	C384.663788,890.065857 391.021637,882.805603 391.983154,872.955322 
	C390.767456,873.573792 389.716370,874.403687 389.023468,875.466919 
	C387.668640,877.545898 386.743225,879.932678 385.236511,881.879761 
	C378.633362,890.413635 362.916534,890.767944 359.425140,878.583862 
M498.397461,888.264648 
	C497.570374,887.049988 496.052368,885.850098 496.026184,884.618408 
	C495.828064,875.302612 495.574463,865.962097 496.068237,856.668091 
	C496.327087,851.796143 497.349854,846.674377 499.382599,842.294189 
	C500.637329,839.590393 504.358643,837.935730 507.192993,836.162292 
	C507.623260,835.893066 509.252228,837.539490 510.326782,838.299927 
	C509.563843,839.188965 508.943359,840.310547 507.992615,840.892883 
	C507.241302,841.352966 506.084106,841.150391 505.172882,841.235901 
	C503.330780,848.003296 504.519531,852.326660 509.187622,854.192749 
	C513.661743,855.981445 518.328857,856.294373 522.363098,852.904419 
	C525.894165,849.937134 527.149048,843.568787 525.274353,838.525269 
	C523.534973,833.845825 519.989014,831.496643 515.076477,830.989990 
	C507.433197,830.201721 501.165497,832.665039 495.977264,840.092468 
	C495.977264,836.654236 495.977264,834.586060 495.977264,832.479370 
	C485.491119,832.479370 475.394958,832.479370 465.298767,832.479370 
	C465.225952,832.937744 465.153107,833.396118 465.080292,833.854492 
	C467.362213,834.340332 469.644104,834.826233 471.798492,835.284973 
	C471.798492,852.995605 471.798492,870.530457 471.798492,887.792114 
	C469.302582,888.292908 467.211700,888.712463 465.120819,889.131958 
	C465.197876,889.576172 465.274933,890.020386 465.351990,890.464600 
	C478.506470,890.464600 491.660950,890.464600 504.815430,890.464600 
	C504.867432,889.964050 504.919403,889.463440 504.971405,888.962891 
	C503.089264,888.731934 501.207153,888.500977 498.397461,888.264648 
M843.006714,823.656494 
	C848.731140,824.013977 854.128906,823.399841 857.094543,817.588013 
	C860.319397,811.268250 857.776672,803.448486 851.914490,800.997437 
	C844.342773,797.831665 835.507141,800.782104 833.234680,807.235291 
	C830.526428,814.925964 834.048950,821.297180 843.006714,823.656494 
z"/>
<path fill="#E8E3E0" opacity="1.000000" stroke="none" 
	d="
M856.985474,530.089783 
	C849.870911,563.353577 837.715576,594.143127 819.113342,622.179321 
	C779.347229,682.112427 724.681641,721.509521 654.547852,737.700928 
	C575.433899,755.965576 501.996307,741.292297 435.985077,693.948669 
	C376.532318,651.308838 340.476868,593.087830 328.244598,521.023132 
	C315.496521,445.919617 332.128815,377.045532 377.274689,315.687286 
	C407.351685,274.809265 446.533478,245.072418 493.726532,226.096344 
	C529.965271,211.524948 567.717834,205.218079 606.597473,207.251465 
	C730.695068,213.741699 830.560181,302.324280 855.919556,418.099060 
	C864.038086,455.162598 864.597839,492.399963 856.985474,530.089783 
M418.017609,664.493347 
	C467.701965,709.533264 525.843994,732.929993 593.129211,733.157166 
	C645.971802,733.335510 694.775208,719.092346 737.743347,688.715576 
	C814.894775,634.172546 852.989685,559.159485 850.065857,464.199738 
	C848.980957,428.965515 840.284607,395.428833 824.913147,363.759796 
	C776.281799,263.567322 669.717163,206.115540 559.619263,220.898087 
	C491.128448,230.094147 434.875793,261.890411 392.013458,315.901489 
	C342.304474,378.540131 326.082184,450.001129 341.441193,528.197876 
	C351.912689,581.510986 377.960083,626.679321 418.017609,664.493347 
z"/>
<path fill="#E7E3E0" opacity="1.000000" stroke="none" 
	d="
M542.006531,891.010498 
	C536.758789,891.010498 532.009521,891.010498 527.260254,891.010498 
	C527.161743,890.362122 527.063293,889.713745 526.964783,889.065369 
	C529.182373,888.656189 531.399902,888.247009 533.861084,887.792847 
	C533.861084,870.298035 533.861084,852.700806 533.861084,835.147827 
	C531.423462,834.761841 529.213074,834.411804 527.002747,834.061829 
	C527.056213,833.561340 527.109741,833.060791 527.163269,832.560303 
	C537.231079,832.560303 547.298889,832.560303 557.724854,832.560303 
	C557.724854,834.570129 557.724854,836.676208 557.724854,839.477356 
	C558.743469,838.799622 559.371460,838.602417 559.625549,838.180176 
	C564.645264,829.838440 577.708740,829.676453 585.038452,832.188354 
	C592.208923,834.645691 595.795593,841.225525 595.823242,851.225586 
	C595.856812,863.366516 595.831177,875.507568 595.831177,887.642578 
	C598.417175,888.209167 600.676208,888.704163 602.935303,889.199158 
	C602.848999,889.660645 602.762695,890.122131 602.676453,890.583618 
	C590.849915,890.583618 579.023376,890.583618 567.196838,890.583618 
	C567.041809,890.241211 566.886780,889.898743 566.731750,889.556335 
	C568.334229,888.926208 569.936646,888.296082 571.659241,887.618652 
	C571.659241,872.785461 571.743652,857.666687 571.540649,842.551819 
	C571.518005,840.872620 569.969849,837.915527 568.933411,837.826355 
	C566.953857,837.655945 563.865051,838.539612 562.963684,840.030090 
	C560.788757,843.626648 558.450439,847.765869 558.245422,851.791504 
	C557.637268,863.737122 558.027649,875.733643 558.027649,887.638123 
	C559.932251,888.247925 561.690247,888.810791 563.448181,889.373596 
	C563.349915,889.919250 563.251587,890.464844 563.153320,891.010498 
	C556.270569,891.010498 549.387756,891.010498 542.006531,891.010498 
z"/>
<path fill="#E7E3E0" opacity="1.000000" stroke="none" 
	d="
M720.183228,885.330139 
	C714.034363,892.243896 706.011719,892.747742 697.721680,891.873230 
	C688.993896,890.952515 683.278992,883.905396 683.129822,873.885803 
	C682.961243,862.564453 683.087646,851.238708 683.085815,839.914917 
	C683.085510,838.285522 683.085693,836.656128 683.085693,835.239197 
	C680.378601,834.744324 678.191162,834.344482 676.003723,833.944641 
	C676.060181,833.469543 676.116638,832.994385 676.173096,832.519287 
	C686.131226,832.519287 696.089294,832.519287 706.832825,832.519287 
	C706.832825,833.923096 706.829773,835.666931 706.833313,837.410767 
	C706.860291,850.732483 706.763062,864.056519 707.007507,877.374268 
	C707.066101,880.564026 706.135986,884.890137 710.923218,885.933899 
	C714.406372,886.693359 717.933838,883.131165 719.044250,877.980835 
	C719.532288,875.717346 719.804993,873.364014 719.819763,871.049194 
	C719.895264,859.229492 719.854614,847.408997 719.854614,835.472046 
	C717.806824,834.867859 715.866943,834.295593 713.927124,833.723267 
	C714.022217,833.292786 714.117310,832.862366 714.212402,832.431885 
	C723.852051,832.431885 733.491760,832.431885 743.601807,832.431885 
	C743.601807,850.800659 743.601807,869.212219 743.601807,887.576782 
	C746.299194,888.201965 748.551086,888.723877 750.803040,889.245789 
	C750.705261,889.704651 750.607483,890.163513 750.509705,890.622375 
	C740.983765,890.622375 731.457825,890.622375 721.572632,890.622375 
	C721.227478,889.076660 720.841370,887.347412 720.183228,885.330139 
z"/>
<path fill="#E8E3E0" opacity="1.000000" stroke="none" 
	d="
M637.695312,839.000244 
	C637.695312,855.461670 637.695312,871.423157 637.695312,887.733765 
	C646.613037,888.834473 654.226807,886.645874 659.795288,879.899902 
	C663.569885,875.327271 666.309326,869.907715 669.617981,864.937744 
	C670.538391,863.555298 671.837646,862.425110 672.963013,861.179138 
	C673.473511,861.464417 673.983948,861.749756 674.494385,862.035034 
	C673.753235,871.552246 673.012024,881.069397 672.239685,890.986572 
	C670.654053,891.100098 669.221863,891.290466 667.789551,891.291931 
	C648.477234,891.311829 629.164795,891.332397 609.852783,891.256897 
	C608.215332,891.250488 606.580505,890.558350 604.944458,890.184753 
	C605.058899,889.576965 605.173340,888.969116 605.287720,888.361328 
	C607.656616,888.142273 610.025452,887.923218 612.542664,887.690430 
	C612.542664,860.886597 612.542664,834.283142 612.542664,807.529541 
	C610.026001,807.062622 607.513733,806.596619 605.001526,806.130554 
	C605.097046,805.570129 605.192566,805.009644 605.288086,804.449219 
	C620.421753,804.449219 635.555359,804.449219 650.688965,804.449219 
	C650.807434,804.943481 650.925903,805.437805 651.044312,805.932068 
	C649.126953,806.282288 647.221863,806.792419 645.288940,806.941101 
	C642.995361,807.117432 640.677856,806.982605 637.695312,806.982605 
	C637.695312,817.682007 637.695312,828.091125 637.695312,839.000244 
z"/>
<path fill="#E4E0DD" opacity="1.000000" stroke="none" 
	d="
M323.892944,864.004700 
	C324.575287,863.090454 324.992828,862.261658 325.654144,861.949768 
	C326.290100,861.649780 327.178406,861.884827 328.019653,861.884827 
	C328.127014,862.671997 328.280609,863.155396 328.243896,863.623840 
	C327.542267,872.584167 326.818268,881.542725 326.075500,890.792908 
	C324.862610,890.981079 323.771698,891.296326 322.680298,891.297913 
	C302.848328,891.326965 283.016205,891.342590 263.184479,891.267151 
	C261.734558,891.261597 260.287354,890.538757 258.838898,890.149414 
	C258.956390,889.533203 259.073883,888.916992 259.191376,888.300781 
	C261.402344,888.136047 263.613312,887.971375 266.129364,887.783936 
	C266.129364,860.943359 266.129364,834.224670 266.129364,807.526855 
	C263.637878,807.043274 261.267426,806.583130 258.896973,806.123047 
	C258.991119,805.569092 259.085266,805.015137 259.179413,804.461182 
	C274.311829,804.461182 289.444244,804.461182 304.604340,804.461182 
	C303.980286,806.265076 303.980286,806.265076 291.914093,807.326477 
	C291.914093,834.002625 291.914093,860.713806 291.914093,887.769226 
	C300.572540,888.827393 308.192200,886.562073 313.725800,879.774658 
	C317.581512,875.045227 320.434113,869.498047 323.892944,864.004700 
z"/>
<path fill="#E7E2DF" opacity="1.000000" stroke="none" 
	d="
M873.477966,837.537720 
	C877.555176,835.448425 881.280640,832.449646 885.255737,832.070862 
	C893.442139,831.290649 901.821960,831.309387 910.009216,832.128662 
	C917.667969,832.895081 922.354736,838.181885 922.956604,845.826538 
	C923.673767,854.935608 923.490723,864.115540 923.697021,873.264771 
	C923.757080,875.929016 923.538147,878.641052 923.986206,881.238098 
	C924.222168,882.605530 925.621399,883.772217 926.495422,885.029541 
	C927.671387,884.056763 929.344604,883.308228 929.907959,882.059143 
	C930.772278,880.142578 930.820251,877.869080 931.320374,875.772217 
	C931.562195,874.758606 932.044678,873.802368 932.848450,871.688171 
	C935.099426,879.869263 932.073669,888.024170 926.731567,890.704956 
	C919.144287,894.512329 906.315613,891.807495 900.723816,885.221375 
	C894.590271,892.519714 881.579651,894.505493 873.490173,889.338257 
	C868.768799,886.322449 867.278870,881.748108 867.469604,876.424866 
	C867.659119,871.135742 869.821350,866.769775 874.909973,865.056396 
	C879.561096,863.490234 884.534546,862.739136 889.426758,862.080811 
	C892.685059,861.642334 896.050110,861.997498 900.193665,861.997498 
	C899.755737,853.869690 899.669678,846.079407 898.803528,838.376831 
	C898.226685,833.246948 893.518311,831.126953 890.312866,834.273804 
	C889.236572,835.330383 888.933289,839.116821 889.826904,839.910828 
	C894.389954,843.965515 894.271484,850.607422 889.064819,854.180298 
	C884.769897,857.127502 877.029663,856.815918 873.619446,853.558411 
	C870.071289,850.169128 869.917664,843.804871 873.477966,837.537720 
M899.513794,878.735962 
	C899.513794,873.978760 899.513794,869.221619 899.513794,864.293213 
	C895.530945,864.356689 893.077209,866.405273 892.503723,870.086243 
	C891.946289,873.664673 891.775024,877.367126 892.005737,880.978577 
	C892.127808,882.889282 893.466431,884.722168 894.255859,886.590271 
	C895.788635,885.062439 897.406494,883.607300 898.806763,881.966431 
	C899.281921,881.409729 899.208069,880.384521 899.513794,878.735962 
z"/>
<path fill="#E7E2DF" opacity="1.000000" stroke="none" 
	d="
M427.930878,888.911621 
	C419.932373,893.817627 411.991852,893.141541 404.348297,889.443787 
	C399.125610,886.917297 397.881592,881.852417 398.044525,876.295044 
	C398.196716,871.104736 400.293060,866.941589 405.066956,865.210388 
	C409.671722,863.540405 414.660736,862.767639 419.549042,862.097534 
	C422.943604,861.632263 426.453430,862.008057 430.741241,862.008057 
	C430.202484,853.536194 430.061920,845.576477 429.060760,837.726562 
	C428.454315,832.971313 423.669006,831.224487 420.653046,834.375671 
	C419.638123,835.436157 419.507446,839.159485 420.433807,839.947144 
	C424.470428,843.378784 424.856720,849.553589 420.680511,853.336487 
	C416.337585,857.270325 407.351776,857.161438 403.714813,853.131042 
	C399.894562,848.897339 400.948853,840.793457 405.115204,836.271362 
	C411.483307,829.359619 441.883240,829.211853 448.110809,835.222046 
	C452.284851,839.250427 453.874115,844.151611 454.004517,849.592346 
	C454.223969,858.748047 453.987000,867.914734 454.208099,877.070312 
	C454.277557,879.945801 453.028168,884.266541 457.319702,884.651855 
	C458.539154,884.761353 460.353241,880.098816 461.582306,877.478088 
	C462.208252,876.143494 462.141327,874.483948 462.490112,872.341736 
	C465.781342,876.394470 463.687531,885.538940 459.429474,889.191711 
	C453.025269,894.685669 438.172729,892.754089 431.073700,885.322571 
	C430.111755,886.445435 429.166595,887.548645 427.930878,888.911621 
M426.674744,886.066895 
	C432.493622,879.493042 429.704773,871.757935 430.259338,864.216919 
	C425.700775,864.527649 423.281311,866.710632 422.935059,870.389038 
	C422.518188,874.818176 422.609833,879.325073 422.916412,883.768311 
	C422.981476,884.711182 424.923981,885.524475 426.674744,886.066895 
z"/>
<path fill="#E7E2DF" opacity="1.000000" stroke="none" 
	d="
M359.565247,878.962280 
	C362.916534,890.767944 378.633362,890.413635 385.236511,881.879761 
	C386.743225,879.932678 387.668640,877.545898 389.023468,875.466919 
	C389.716370,874.403687 390.767456,873.573792 391.983154,872.955322 
	C391.021637,882.805603 384.663788,890.065857 374.763428,891.515930 
	C368.318115,892.459961 361.379822,892.594177 355.047668,891.261108 
	C338.062164,887.685181 329.878784,872.835205 333.533264,853.903503 
	C336.208466,840.044983 346.637543,831.166016 361.687744,830.135376 
	C364.991486,829.909241 368.392365,829.843384 371.645844,830.355774 
	C387.014832,832.776428 393.545288,841.507568 392.722107,858.984924 
	C387.040771,858.984924 381.294159,858.984924 375.547516,858.984924 
	C369.757874,858.984924 363.968201,858.984924 357.095917,858.984924 
	C357.915985,865.885376 358.670563,872.234619 359.565247,878.962280 
M365.971191,833.360962 
	C361.456146,832.132751 359.684113,835.152100 359.141052,838.552673 
	C358.242065,844.182251 358.033966,849.922241 357.533173,855.633789 
	C362.184113,855.633789 365.883331,855.633789 369.756622,855.633789 
	C369.756622,851.119812 370.150024,846.941772 369.629028,842.880981 
	C369.230194,839.772522 367.675934,836.812317 365.971191,833.360962 
z"/>
<path fill="#E7E2DF" opacity="1.000000" stroke="none" 
	d="
M793.013550,833.791260 
	C790.774414,833.925293 788.535339,834.059265 785.651123,834.231934 
	C789.211060,840.193787 792.536743,845.763367 795.981567,851.923096 
	C796.768188,852.505737 797.435852,852.498413 798.103394,852.490967 
	C802.225891,846.636597 806.348328,840.782166 810.564453,834.539856 
	C810.658203,834.151978 810.316284,833.964600 810.316284,833.964600 
	C807.705872,833.964600 805.095520,833.964600 802.200928,833.964600 
	C804.220886,830.188110 819.340332,829.947693 822.180542,833.727661 
	C812.157715,832.489624 810.707397,841.261353 806.605591,846.607483 
	C798.943604,856.593872 799.214722,856.804199 806.006470,867.464355 
	C809.573486,873.063171 813.354858,878.539429 816.636719,884.300476 
	C818.450317,887.484192 820.703186,888.816956 824.592529,888.782104 
	C824.988403,889.744507 824.992676,890.269897 824.996948,890.795288 
	C811.254578,890.795288 797.512268,890.795288 783.769897,890.795288 
	C783.708069,890.133728 783.646179,889.472168 783.584290,888.810669 
	C785.845764,888.645569 788.107239,888.480469 790.989868,888.486572 
	C791.562500,888.102173 791.514038,887.546509 791.465576,886.990906 
	C787.521057,880.688965 783.576599,874.386963 779.121765,867.269653 
	C774.843994,873.937622 770.806274,880.231384 766.306702,886.864746 
	C766.170288,887.648315 766.495789,888.092346 766.821228,888.536377 
	C769.097656,888.631836 771.374084,888.727356 773.650574,888.822815 
	C773.604614,889.411316 773.558716,889.999878 773.512817,890.588379 
	C766.790894,890.588379 760.068909,890.588379 753.346924,890.588379 
	C753.251160,890.111816 753.155334,889.635193 753.059509,889.158630 
	C754.685425,888.861755 756.402710,888.799072 757.914368,888.209351 
	C759.853455,887.452698 762.275513,886.729126 763.357483,885.193604 
	C767.560730,879.228760 771.207092,872.874756 775.292969,866.822449 
	C776.830505,864.544983 776.772888,862.920776 775.258484,860.644775 
	C770.477722,853.459473 765.750366,846.220398 761.433655,838.752747 
	C759.355774,835.158081 757.012939,833.185791 752.296326,833.743774 
	C751.638855,833.317078 751.470642,833.157043 751.278809,833.021973 
	C751.768860,832.389832 752.255920,831.208313 752.749268,831.205627 
	C766.132446,831.133789 779.516418,831.176147 792.899902,831.252014 
	C793.203369,831.253723 793.503357,831.864075 793.626648,832.719604 
	C793.277893,833.409119 793.132935,833.589966 793.013550,833.791260 
z"/>
<path fill="#E7E2DF" opacity="1.000000" stroke="none" 
	d="
M498.861237,888.267334 
	C501.207153,888.500977 503.089264,888.731934 504.971405,888.962891 
	C504.919403,889.463440 504.867432,889.964050 504.815430,890.464600 
	C491.660950,890.464600 478.506470,890.464600 465.351990,890.464600 
	C465.274933,890.020386 465.197876,889.576172 465.120819,889.131958 
	C467.211700,888.712463 469.302582,888.292908 471.798492,887.792114 
	C471.798492,870.530457 471.798492,852.995605 471.798492,835.284973 
	C469.644104,834.826233 467.362213,834.340332 465.080292,833.854492 
	C465.153107,833.396118 465.225952,832.937744 465.298767,832.479370 
	C475.394958,832.479370 485.491119,832.479370 495.977264,832.479370 
	C495.977264,834.586060 495.977264,836.654236 495.977264,840.092468 
	C501.165497,832.665039 507.433197,830.201721 515.076477,830.989990 
	C519.989014,831.496643 523.534973,833.845825 525.274353,838.525269 
	C527.149048,843.568787 525.894165,849.937134 522.363098,852.904419 
	C518.328857,856.294373 513.661743,855.981445 509.187622,854.192749 
	C504.519531,852.326660 503.330780,848.003296 505.172882,841.235901 
	C506.084106,841.150391 507.241302,841.352966 507.992615,840.892883 
	C508.943359,840.310547 509.563843,839.188965 510.326752,838.299927 
	C509.252228,837.539490 507.623260,835.893066 507.192993,836.162292 
	C504.358643,837.935730 500.637329,839.590393 499.382599,842.294189 
	C497.349854,846.674377 496.327087,851.796143 496.068237,856.668091 
	C495.574463,865.962097 495.828064,875.302612 496.026184,884.618408 
	C496.052368,885.850098 497.570374,887.049988 498.861237,888.267334 
z"/>
<path fill="#E7E2DF" opacity="1.000000" stroke="none" 
	d="
M827.002563,832.184143 
	C836.796204,832.184143 846.589783,832.184143 856.959473,832.184143 
	C856.959473,850.685059 856.959473,869.168823 856.959473,887.511780 
	C859.780945,888.179199 862.024902,888.710022 864.268799,889.240845 
	C864.176758,889.818604 864.084717,890.396301 863.992615,890.973999 
	C851.963867,890.973999 839.935059,890.973999 827.458618,890.616760 
	C827.019287,889.820496 827.027588,889.381531 827.035889,888.942505 
	C828.934753,888.580444 830.833679,888.218384 833.017334,887.802063 
	C833.017334,870.296509 833.017334,852.736450 833.017334,834.944275 
	C831.152344,834.843384 829.524292,834.755371 827.456177,834.242004 
	C827.011597,833.272522 827.007080,832.728333 827.002563,832.184143 
z"/>
<path fill="#E7E2DF" opacity="1.000000" stroke="none" 
	d="
M842.607788,823.561768 
	C834.048950,821.297180 830.526428,814.925964 833.234680,807.235291 
	C835.507141,800.782104 844.342773,797.831665 851.914490,800.997437 
	C857.776672,803.448486 860.319397,811.268250 857.094543,817.588013 
	C854.128906,823.399841 848.731140,824.013977 842.607788,823.561768 
z"/>
<path fill="#E5E0DE" opacity="1.000000" stroke="none" 
	d="
M826.691772,888.864746 
	C827.027588,889.381531 827.019287,889.820496 827.008484,890.479126 
	C826.559875,890.752869 826.113892,890.807007 825.332397,890.828247 
	C824.992676,890.269897 824.988403,889.744507 824.979736,888.956543 
	C825.432800,888.724976 825.890259,888.755981 826.691772,888.864746 
z"/>
<path fill="#E5E0DE" opacity="1.000000" stroke="none" 
	d="
M826.761841,832.142456 
	C827.007080,832.728333 827.011597,833.272522 827.018555,834.088745 
	C826.854370,833.607483 826.687683,832.854065 826.761841,832.142456 
z"/>
<path fill="#E5E0DE" opacity="1.000000" stroke="none" 
	d="
M797.734497,852.578247 
	C797.435852,852.498413 796.768188,852.505737 796.046265,852.268677 
	C796.449707,852.237976 796.907593,852.451660 797.734497,852.578247 
z"/>
<path fill="#E5E0DE" opacity="1.000000" stroke="none" 
	d="
M766.605835,888.173523 
	C766.495789,888.092346 766.170288,887.648315 766.016357,887.097900 
	C766.255432,887.264526 766.322937,887.537598 766.605835,888.173523 
z"/>
<path fill="#E5E0DE" opacity="1.000000" stroke="none" 
	d="
M791.420288,887.379639 
	C791.514038,887.546509 791.562500,888.102173 791.418091,888.597168 
	C791.275208,888.280518 791.325134,888.024414 791.420288,887.379639 
z"/>
<path fill="#E5E0DE" opacity="1.000000" stroke="none" 
	d="
M793.252441,833.815491 
	C793.132935,833.589966 793.277893,833.409119 793.584351,833.139648 
	C793.941711,833.384644 793.865356,833.654358 793.252441,833.815491 
z"/>
<path fill="#E5E0DE" opacity="1.000000" stroke="none" 
	d="
M810.410034,834.069092 
	C810.316284,833.964600 810.658203,834.151978 810.721313,834.158936 
	C810.784424,834.165894 810.503784,834.173523 810.410034,834.069092 
z"/>
<path fill="#E5E0DE" opacity="1.000000" stroke="none" 
	d="
M751.223877,833.255920 
	C751.470642,833.157043 751.638855,833.317078 751.881104,833.646606 
	C751.978943,833.791260 751.500488,833.838074 751.500488,833.838074 
	C751.500488,833.838074 751.168884,833.489929 751.223877,833.255920 
z"/>
<path fill="#152850" opacity="1.000000" stroke="none" 
	d="
M417.763550,664.244629 
	C377.960083,626.679321 351.912689,581.510986 341.441193,528.197876 
	C326.082184,450.001129 342.304474,378.540131 392.013458,315.901489 
	C434.875793,261.890411 491.128448,230.094147 559.619263,220.898087 
	C669.717163,206.115540 776.281799,263.567322 824.913147,363.759796 
	C840.284607,395.428833 848.980957,428.965515 850.065857,464.199738 
	C852.989685,559.159485 814.894775,634.172546 737.743347,688.715576 
	C694.775208,719.092346 645.971802,733.335510 593.129211,733.157166 
	C525.843994,732.929993 467.701965,709.533264 417.763550,664.244629 
M644.567017,519.854370 
	C634.789185,513.929871 624.157288,510.332001 612.997986,508.077576 
	C609.986755,507.469238 608.055420,508.069580 606.533752,510.955597 
	C604.602417,514.618774 602.309814,518.115234 599.925537,521.509827 
	C596.938110,525.763123 593.206055,525.699036 590.329651,521.413391 
	C588.014343,517.963623 585.771851,514.448914 583.759216,510.817688 
	C582.360474,508.293945 580.746887,507.381683 577.774597,507.934265 
	C543.702332,514.268738 514.450317,537.669678 506.584717,572.185608 
	C506.083527,574.385010 506.711029,577.603516 508.082367,579.353699 
	C529.187500,606.288696 556.912842,620.942261 591.137085,622.144897 
	C627.967102,623.439087 657.912903,608.927856 681.546631,580.859192 
	C684.183960,577.726929 684.634521,574.611389 683.628418,570.836731 
	C677.728149,548.701538 664.642151,532.062378 644.567017,519.854370 
M485.248535,520.192261 
	C486.546173,535.335449 490.385681,549.717346 497.979950,563.790894 
	C511.378174,526.723206 538.087280,506.273743 575.363403,497.868286 
	C574.020020,495.639984 572.809387,493.708923 571.676086,491.733521 
	C570.098083,488.983032 570.108276,486.420319 572.538330,484.052185 
	C578.624084,478.121582 584.650208,472.129852 590.720276,466.183075 
	C593.780823,463.184692 596.789734,463.217590 599.838257,466.310699 
	C604.165894,470.701630 608.568176,475.019165 612.949097,479.357361 
	C620.786316,487.118073 620.787537,487.113617 615.441956,496.919586 
	C615.308472,497.164337 615.344055,497.501343 615.272217,497.988861 
	C652.175842,506.287292 678.907715,526.747253 692.408325,563.793640 
	C706.083679,537.062134 708.642517,510.072968 700.917664,481.521759 
	C674.222107,504.035370 642.235046,498.994080 623.106445,480.006287 
	C604.125671,461.165314 601.755737,430.217621 617.343262,408.656097 
	C625.599243,397.235931 636.531433,389.814758 650.176086,386.622101 
	C668.612854,382.308136 684.919189,387.341827 699.578064,399.186279 
	C705.950195,389.046570 707.884888,378.362091 707.954529,366.886719 
	C706.807617,367.049988 706.115295,367.023956 705.519958,367.251526 
	C691.860535,372.472595 677.729248,373.413910 663.282166,372.319763 
	C654.988342,371.691650 646.649231,371.430389 638.330017,371.420380 
	C623.757629,371.402832 611.397888,378.219666 599.199646,385.051056 
	C594.688049,387.577728 591.179688,387.894043 586.962036,384.639587 
	C572.851807,373.751892 556.855286,370.120392 539.132629,371.661377 
	C527.743408,372.651703 516.173462,372.602997 504.757812,371.872925 
	C497.584625,371.414185 490.547211,368.832031 483.015198,367.102905 
	C484.239716,377.852234 485.830536,388.500397 492.051727,397.927216 
	C524.168396,379.561035 551.559937,382.183868 570.207947,405.032715 
	C588.297913,427.197815 587.730286,457.138062 568.615784,478.471069 
	C559.983398,488.105347 549.004272,493.913727 536.268982,495.796356 
	C518.681824,498.396210 503.116486,493.417297 489.528046,481.347565 
	C485.695892,494.103638 484.500641,506.567383 485.248535,520.192261 
M702.802734,462.223877 
	C717.940796,433.453186 699.288696,398.530365 666.738647,395.675690 
	C633.572144,392.766937 607.513000,425.282074 620.706482,458.009705 
	C627.676331,475.299072 641.360840,485.042542 660.287109,486.010803 
	C678.920776,486.964081 692.906006,478.826324 702.802734,462.223877 
M562.004150,470.495575 
	C581.551575,447.528809 574.629761,413.816315 547.533508,400.016968 
	C517.869446,384.909912 481.139648,408.152161 482.076569,441.437378 
	C482.600006,460.032532 494.188263,476.753571 511.007812,483.182922 
	C528.947449,490.040466 548.222168,485.414368 562.004150,470.495575 
M571.328491,338.931946 
	C562.933289,340.571625 554.538086,342.211304 546.271667,343.825806 
	C545.657959,350.012329 545.125732,355.377106 544.532532,361.356598 
	C561.970886,359.983551 576.936096,365.141571 590.407898,374.825592 
	C593.043701,376.720306 594.886536,375.881927 597.134216,374.610657 
	C611.768677,366.333557 627.053528,360.277100 644.291565,360.958344 
	C644.693359,360.974213 645.112305,360.554779 645.518372,360.340942 
	C645.335815,358.249695 645.121704,356.267273 644.995911,354.279266 
	C644.340820,343.929047 644.348816,343.928345 634.318909,341.818298 
	C632.208862,341.374390 630.097290,340.937958 627.988403,340.488556 
	C609.490051,336.546631 590.938232,334.365753 571.328491,338.931946 
M558.440857,317.017395 
	C547.122803,320.599976 535.804749,324.182556 524.486755,327.765106 
	C529.692444,330.123291 534.700867,331.758453 539.815491,332.930054 
	C542.120544,333.458038 544.684998,333.375183 547.047729,333.016388 
	C551.310974,332.368958 555.490540,331.189270 559.741333,330.437103 
	C574.494690,327.826508 589.271118,324.562317 604.342712,326.578430 
	C617.681458,328.362701 630.905518,331.000824 644.187012,333.221436 
	C645.610107,333.459381 647.173645,333.797089 648.509521,333.454681 
	C654.352356,331.956970 660.135315,330.225555 666.245056,328.492462 
	C665.586914,327.898010 665.287781,327.416809 664.877869,327.287781 
	C642.689209,320.303009 620.508301,313.292267 598.265991,306.481964 
	C596.205566,305.851105 593.601746,306.024597 591.501343,306.657654 
	C580.699951,309.913147 569.980713,313.440948 558.440857,317.017395 
M596.467773,477.305481 
	C595.630127,477.279510 594.448853,476.880219 594.008362,477.285675 
	C589.876770,481.089355 585.871887,485.030762 581.839294,488.923767 
	C586.421997,496.168427 590.652466,502.856171 595.198608,510.043091 
	C599.796082,502.728912 603.999023,496.042358 608.351379,489.118073 
	C604.447205,485.244659 600.689941,481.517090 596.467773,477.305481 
M694.179626,644.912598 
	C696.660828,637.588745 699.174927,630.275818 701.609314,622.936462 
	C702.817322,619.294250 701.461975,616.478943 697.931274,615.418457 
	C694.284241,614.322937 691.895569,616.301453 690.881897,619.881409 
	C689.163757,625.949524 687.313904,631.986633 685.820557,638.110291 
	C684.383118,644.004639 687.519104,646.797424 694.179626,644.912598 
M680.241699,628.824829 
	C680.877625,626.427063 681.691040,624.059570 682.106079,621.624146 
	C682.668457,618.323975 680.947510,615.580566 677.903503,615.438477 
	C675.832642,615.341797 672.399292,617.121521 671.744568,618.873047 
	C669.319275,625.361328 667.719116,632.166321 665.962585,638.892517 
	C665.080872,642.269226 666.326660,644.960327 669.787170,645.843750 
	C673.284485,646.736511 675.550720,644.761047 676.596191,641.551819 
	C677.877563,637.618530 678.922424,633.608215 680.241699,628.824829 
M659.778687,632.264954 
	C660.664368,628.900757 661.615967,625.552124 662.417603,622.167969 
	C663.262939,618.599426 661.495178,615.805664 658.284302,615.471436 
	C656.299072,615.264832 652.819214,617.096802 652.142334,618.840942 
	C649.633240,625.307129 647.866150,632.079590 646.114075,638.813416 
	C645.256165,642.110535 646.639465,644.908020 650.043274,645.825256 
	C653.535767,646.766479 655.776489,644.708679 656.898376,641.573242 
	C657.901306,638.770203 658.596741,635.857178 659.778687,632.264954 
M502.116241,629.247131 
	C501.084869,625.746521 500.243347,622.174805 498.965424,618.766602 
	C497.827667,615.732178 495.369690,614.339661 492.164490,615.459656 
	C489.070923,616.540588 487.675446,619.004822 488.506805,622.185791 
	C490.186584,628.613159 492.003052,635.010193 493.980835,641.351868 
	C494.973114,644.533508 497.259125,646.591553 500.805176,645.632568 
	C504.547119,644.620667 505.514343,641.647034 504.729340,638.151428 
	C504.112335,635.403809 503.149170,632.733887 502.116241,629.247131 
M523.352356,643.824646 
	C523.776123,642.278259 524.848511,640.572571 524.514465,639.212341 
	C522.822815,632.323547 521.130981,625.383850 518.591187,618.788574 
	C517.920349,617.046509 514.162781,615.432434 511.958557,615.595703 
	C508.823761,615.827881 507.379486,618.864136 508.179199,622.016113 
	C509.803009,628.416504 511.540039,634.802917 513.604126,641.072021 
	C515.204041,645.931030 517.968079,646.742065 523.352356,643.824646 
M527.900513,619.905762 
	C529.573669,626.626587 531.183228,633.364075 532.945129,640.061584 
	C533.921692,643.773865 536.063049,646.685059 540.329651,645.526001 
	C544.726013,644.331726 544.752136,640.539307 543.817932,636.957764 
	C542.358032,631.360962 540.858337,625.745483 538.836853,620.339294 
	C538.074585,618.300659 535.875671,615.506836 534.218506,615.427734 
	C532.220337,615.332336 530.101746,617.758057 527.900513,619.905762 
M531.360535,342.131989 
	C530.406982,341.361969 529.453430,340.591949 528.549316,339.861847 
	C519.329102,348.588074 518.742554,350.284149 520.836182,361.712219 
	C526.188538,361.712219 531.552002,361.712219 537.126587,361.712219 
	C536.794983,354.722076 539.369568,347.329376 531.360535,342.131989 
z"/>
<path fill="#223459" opacity="1.000000" stroke="none" 
	d="
M899.449463,879.154663 
	C899.208069,880.384521 899.281921,881.409729 898.806763,881.966431 
	C897.406494,883.607300 895.788635,885.062439 894.255859,886.590210 
	C893.466431,884.722168 892.127808,882.889282 892.005737,880.978577 
	C891.775024,877.367126 891.946289,873.664673 892.503723,870.086243 
	C893.077209,866.405273 895.530945,864.356689 899.513794,864.293213 
	C899.513794,869.221619 899.513794,873.978760 899.449463,879.154663 
z"/>
<path fill="#223459" opacity="1.000000" stroke="none" 
	d="
M426.338135,886.232178 
	C424.923981,885.524475 422.981476,884.711182 422.916412,883.768311 
	C422.609833,879.325073 422.518188,874.818176 422.935059,870.389038 
	C423.281311,866.710632 425.700775,864.527649 430.259338,864.216919 
	C429.704773,871.757935 432.493622,879.493042 426.338135,886.232178 
z"/>
<path fill="#182A51" opacity="1.000000" stroke="none" 
	d="
M366.303406,833.573547 
	C367.675934,836.812317 369.230194,839.772522 369.629028,842.880981 
	C370.150024,846.941772 369.756622,851.119812 369.756622,855.633789 
	C365.883331,855.633789 362.184113,855.633789 357.533173,855.633789 
	C358.033966,849.922241 358.242065,844.182251 359.141052,838.552673 
	C359.684113,835.152100 361.456146,832.132751 366.303406,833.573547 
z"/>
<path fill="#EBE7E3" opacity="1.000000" stroke="none" 
	d="
M644.876282,520.050537 
	C664.642151,532.062378 677.728149,548.701538 683.628418,570.836731 
	C684.634521,574.611389 684.183960,577.726929 681.546631,580.859192 
	C657.912903,608.927856 627.967102,623.439087 591.137085,622.144897 
	C556.912842,620.942261 529.187500,606.288696 508.082367,579.353699 
	C506.711029,577.603516 506.083527,574.385010 506.584717,572.185608 
	C514.450317,537.669678 543.702332,514.268738 577.774597,507.934265 
	C580.746887,507.381683 582.360474,508.293945 583.759216,510.817688 
	C585.771851,514.448914 588.014343,517.963623 590.329651,521.413391 
	C593.206055,525.699036 596.938110,525.763123 599.925537,521.509827 
	C602.309814,518.115234 604.602417,514.618774 606.533752,510.955597 
	C608.055420,508.069580 609.986755,507.469238 612.997986,508.077576 
	C624.157288,510.332001 634.789185,513.929871 644.876282,520.050537 
z"/>
<path fill="#EAE5E2" opacity="1.000000" stroke="none" 
	d="
M485.210205,519.722046 
	C484.500641,506.567383 485.695892,494.103638 489.528046,481.347565 
	C503.116486,493.417297 518.681824,498.396210 536.268982,495.796356 
	C549.004272,493.913727 559.983398,488.105347 568.615784,478.471069 
	C587.730286,457.138062 588.297913,427.197815 570.207947,405.032715 
	C551.559937,382.183868 524.168396,379.561035 492.051727,397.927216 
	C485.830536,388.500397 484.239716,377.852234 483.015198,367.102905 
	C490.547211,368.832031 497.584625,371.414185 504.757812,371.872925 
	C516.173462,372.602997 527.743408,372.651703 539.132629,371.661377 
	C556.855286,370.120392 572.851807,373.751892 586.962036,384.639587 
	C591.179688,387.894043 594.688049,387.577728 599.199646,385.051056 
	C611.397888,378.219666 623.757629,371.402832 638.330017,371.420380 
	C646.649231,371.430389 654.988342,371.691650 663.282166,372.319763 
	C677.729248,373.413910 691.860535,372.472595 705.519958,367.251526 
	C706.115295,367.023956 706.807617,367.049988 707.954529,366.886719 
	C707.884888,378.362091 705.950195,389.046570 699.578064,399.186279 
	C684.919189,387.341827 668.612854,382.308136 650.176086,386.622101 
	C636.531433,389.814758 625.599243,397.235931 617.343262,408.656097 
	C601.755737,430.217621 604.125671,461.165314 623.106445,480.006287 
	C642.235046,498.994080 674.222107,504.035370 700.917664,481.521759 
	C708.642517,510.072968 706.083679,537.062134 692.408325,563.793640 
	C678.907715,526.747253 652.175842,506.287292 615.272217,497.988861 
	C615.344055,497.501343 615.308472,497.164337 615.441956,496.919586 
	C620.787537,487.113617 620.786316,487.118073 612.949097,479.357361 
	C608.568176,475.019165 604.165894,470.701630 599.838257,466.310699 
	C596.789734,463.217590 593.780823,463.184692 590.720276,466.183075 
	C584.650208,472.129852 578.624084,478.121582 572.538330,484.052185 
	C570.108276,486.420319 570.098083,488.983032 571.676086,491.733521 
	C572.809387,493.708923 574.020020,495.639984 575.363403,497.868286 
	C538.087280,506.273743 511.378174,526.723206 497.979950,563.790894 
	C490.385681,549.717346 486.546173,535.335449 485.210205,519.722046 
z"/>
<path fill="#EAE5E1" opacity="1.000000" stroke="none" 
	d="
M702.609253,462.541351 
	C692.906006,478.826324 678.920776,486.964081 660.287109,486.010803 
	C641.360840,485.042542 627.676331,475.299072 620.706482,458.009705 
	C607.513000,425.282074 633.572144,392.766937 666.738647,395.675690 
	C699.288696,398.530365 717.940796,433.453186 702.609253,462.541351 
M690.588196,443.084808 
	C690.440918,440.783478 690.430298,438.463684 690.123108,436.183899 
	C688.616943,425.007599 679.307434,415.377869 668.135376,413.335693 
	C656.155029,411.145782 643.216248,416.991699 638.159424,427.259033 
	C632.671143,438.402222 633.369324,449.251038 641.482544,458.883972 
	C649.014526,467.826843 658.987000,470.531342 670.211853,467.866302 
	C680.877136,465.334198 688.764099,455.682159 690.588196,443.084808 
z"/>
<path fill="#EAE5E1" opacity="1.000000" stroke="none" 
	d="
M561.782959,470.772552 
	C548.222168,485.414368 528.947449,490.040466 511.007812,483.182922 
	C494.188263,476.753571 482.600006,460.032532 482.076569,441.437378 
	C481.139648,408.152161 517.869446,384.909912 547.533508,400.016968 
	C574.629761,413.816315 581.551575,447.528809 561.782959,470.772552 
M531.956055,413.163483 
	C514.038025,411.772919 500.874573,422.470673 499.774567,439.316925 
	C498.959534,451.798401 506.227051,462.502106 518.713867,467.210907 
	C529.630920,471.327759 542.550659,467.418701 549.709473,457.832733 
	C562.443787,440.780975 554.125305,418.851074 531.956055,413.163483 
z"/>
<path fill="#EAE6E2" opacity="1.000000" stroke="none" 
	d="
M571.756470,338.857300 
	C590.938232,334.365753 609.490051,336.546631 627.988403,340.488556 
	C630.097290,340.937958 632.208862,341.374390 634.318909,341.818298 
	C644.348816,343.928345 644.340820,343.929047 644.995911,354.279266 
	C645.121704,356.267273 645.335815,358.249695 645.518372,360.340942 
	C645.112305,360.554779 644.693359,360.974213 644.291565,360.958344 
	C627.053528,360.277100 611.768677,366.333557 597.134216,374.610657 
	C594.886536,375.881927 593.043701,376.720306 590.407898,374.825592 
	C576.936096,365.141571 561.970886,359.983551 544.532532,361.356598 
	C545.125732,355.377106 545.657959,350.012329 546.271667,343.825806 
	C554.538086,342.211304 562.933289,340.571625 571.756470,338.857300 
z"/>
<path fill="#E9E5E1" opacity="1.000000" stroke="none" 
	d="
M558.836792,316.945526 
	C569.980713,313.440948 580.699951,309.913147 591.501343,306.657654 
	C593.601746,306.024597 596.205566,305.851105 598.265991,306.481964 
	C620.508301,313.292267 642.689209,320.303009 664.877869,327.287781 
	C665.287781,327.416809 665.586914,327.898010 666.245056,328.492462 
	C660.135315,330.225555 654.352356,331.956970 648.509521,333.454681 
	C647.173645,333.797089 645.610107,333.459381 644.187012,333.221436 
	C630.905518,331.000824 617.681458,328.362701 604.342712,326.578430 
	C589.271118,324.562317 574.494690,327.826508 559.741333,330.437103 
	C555.490540,331.189270 551.310974,332.368958 547.047729,333.016388 
	C544.684998,333.375183 542.120544,333.458038 539.815491,332.930054 
	C534.700867,331.758453 529.692444,330.123291 524.486755,327.765106 
	C535.804749,324.182556 547.122803,320.599976 558.836792,316.945526 
z"/>
<path fill="#E7E3E0" opacity="1.000000" stroke="none" 
	d="
M596.700256,477.547485 
	C600.689941,481.517090 604.447205,485.244659 608.351379,489.118073 
	C603.999023,496.042358 599.796082,502.728912 595.198608,510.043091 
	C590.652466,502.856171 586.421997,496.168427 581.839294,488.923767 
	C585.871887,485.030762 589.876770,481.089355 594.008362,477.285675 
	C594.448853,476.880219 595.630127,477.279510 596.700256,477.547485 
z"/>
<path fill="#E7E2DF" opacity="1.000000" stroke="none" 
	d="
M693.822327,645.070740 
	C687.519104,646.797424 684.383118,644.004639 685.820557,638.110291 
	C687.313904,631.986633 689.163757,625.949524 690.881897,619.881409 
	C691.895569,616.301453 694.284241,614.322937 697.931274,615.418457 
	C701.461975,616.478943 702.817322,619.294250 701.609314,622.936462 
	C699.174927,630.275818 696.660828,637.588745 693.822327,645.070740 
z"/>
<path fill="#E7E3E0" opacity="1.000000" stroke="none" 
	d="
M680.155640,629.228027 
	C678.922424,633.608215 677.877563,637.618530 676.596191,641.551819 
	C675.550720,644.761047 673.284485,646.736511 669.787170,645.843750 
	C666.326660,644.960327 665.080872,642.269226 665.962585,638.892517 
	C667.719116,632.166321 669.319275,625.361328 671.744568,618.873047 
	C672.399292,617.121521 675.832642,615.341797 677.903503,615.438477 
	C680.947510,615.580566 682.668457,618.323975 682.106079,621.624146 
	C681.691040,624.059570 680.877625,626.427063 680.155640,629.228027 
z"/>
<path fill="#E7E2DF" opacity="1.000000" stroke="none" 
	d="
M659.603271,632.628784 
	C658.596741,635.857178 657.901306,638.770203 656.898376,641.573242 
	C655.776489,644.708679 653.535767,646.766479 650.043274,645.825256 
	C646.639465,644.908020 645.256165,642.110535 646.114075,638.813416 
	C647.866150,632.079590 649.633240,625.307129 652.142334,618.840942 
	C652.819214,617.096802 656.299072,615.264832 658.284302,615.471436 
	C661.495178,615.805664 663.262939,618.599426 662.417603,622.167969 
	C661.615967,625.552124 660.664368,628.900757 659.603271,632.628784 
z"/>
<path fill="#E7E3E0" opacity="1.000000" stroke="none" 
	d="
M502.228027,629.638306 
	C503.149170,632.733887 504.112335,635.403809 504.729340,638.151428 
	C505.514343,641.647034 504.547119,644.620667 500.805176,645.632568 
	C497.259125,646.591553 494.973114,644.533508 493.980835,641.351868 
	C492.003052,635.010193 490.186584,628.613159 488.506805,622.185791 
	C487.675446,619.004822 489.070923,616.540588 492.164490,615.459656 
	C495.369690,614.339661 497.827667,615.732178 498.965424,618.766602 
	C500.243347,622.174805 501.084869,625.746521 502.228027,629.638306 
z"/>
<path fill="#E7E2DF" opacity="1.000000" stroke="none" 
	d="
M523.105774,644.117432 
	C517.968079,646.742065 515.204041,645.931030 513.604126,641.072021 
	C511.540039,634.802917 509.803009,628.416504 508.179199,622.016113 
	C507.379486,618.864136 508.823761,615.827881 511.958557,615.595703 
	C514.162781,615.432434 517.920349,617.046509 518.591187,618.788574 
	C521.130981,625.383850 522.822815,632.323547 524.514465,639.212341 
	C524.848511,640.572571 523.776123,642.278259 523.105774,644.117432 
z"/>
<path fill="#E8E3E0" opacity="1.000000" stroke="none" 
	d="
M527.967896,619.499146 
	C530.101746,617.758057 532.220337,615.332336 534.218506,615.427734 
	C535.875671,615.506836 538.074585,618.300659 538.836853,620.339294 
	C540.858337,625.745483 542.358032,631.360962 543.817932,636.957764 
	C544.752136,640.539307 544.726013,644.331726 540.329651,645.526001 
	C536.063049,646.685059 533.921692,643.773865 532.945129,640.061584 
	C531.183228,633.364075 529.573669,626.626587 527.967896,619.499146 
z"/>
<path fill="#E7E2DF" opacity="1.000000" stroke="none" 
	d="
M531.616211,342.387207 
	C539.369568,347.329376 536.794983,354.722076 537.126587,361.712219 
	C531.552002,361.712219 526.188538,361.712219 520.836182,361.712219 
	C518.742554,350.284149 519.329102,348.588074 528.549316,339.861847 
	C529.453430,340.591949 530.406982,341.361969 531.616211,342.387207 
z"/>
<path fill="#182A51" opacity="1.000000" stroke="none" 
	d="
M690.504028,443.497986 
	C688.764099,455.682159 680.877136,465.334198 670.211853,467.866302 
	C658.987000,470.531342 649.014526,467.826843 641.482544,458.883972 
	C633.369324,449.251038 632.671143,438.402222 638.159424,427.259033 
	C643.216248,416.991699 656.155029,411.145782 668.135376,413.335693 
	C679.307434,415.377869 688.616943,425.007599 690.123108,436.183899 
	C690.430298,438.463684 690.440918,440.783478 690.504028,443.497986 
M677.338562,438.178162 
	C675.428711,430.899384 670.498779,426.391235 664.134460,425.959961 
	C660.430237,425.709015 657.851990,427.199921 657.272827,430.867920 
	C656.753662,434.155518 658.957275,435.749146 661.827881,437.028442 
	C663.649597,437.840302 665.714600,439.428802 666.405762,441.170837 
	C667.719666,444.482330 669.212097,446.887054 673.133057,446.091492 
	C677.010132,445.304840 677.859436,442.441467 677.338562,438.178162 
z"/>
<path fill="#182A51" opacity="1.000000" stroke="none" 
	d="
M532.385193,413.227997 
	C554.125305,418.851074 562.443787,440.780975 549.709473,457.832733 
	C542.550659,467.418701 529.630920,471.327759 518.713867,467.210907 
	C506.227051,462.502106 498.959534,451.798401 499.774567,439.316925 
	C500.874573,422.470673 514.038025,411.772919 532.385193,413.227997 
M532.582642,443.945129 
	C534.787598,444.596680 537.168823,446.056763 539.138123,445.627411 
	C540.548889,445.319824 542.111328,442.589508 542.389954,440.755310 
	C543.520447,433.315002 534.684265,424.646484 527.335266,426.141235 
	C525.390808,426.536713 522.783447,428.907745 522.492554,430.698456 
	C522.212158,432.424225 524.230042,435.930939 525.768372,436.273438 
	C529.931091,437.200165 531.429932,439.674500 532.582642,443.945129 
z"/>
<path fill="#E8E3E0" opacity="1.000000" stroke="none" 
	d="
M677.404724,438.560242 
	C677.859436,442.441467 677.010132,445.304840 673.133057,446.091492 
	C669.212097,446.887054 667.719666,444.482330 666.405762,441.170837 
	C665.714600,439.428802 663.649597,437.840302 661.827881,437.028442 
	C658.957275,435.749146 656.753662,434.155518 657.272827,430.867920 
	C657.851990,427.199921 660.430237,425.709015 664.134460,425.959961 
	C670.498779,426.391235 675.428711,430.899384 677.404724,438.560242 
z"/>
<path fill="#E8E3E0" opacity="1.000000" stroke="none" 
	d="
M532.368774,443.614136 
	C531.429932,439.674500 529.931091,437.200165 525.768372,436.273438 
	C524.230042,435.930939 522.212158,432.424225 522.492554,430.698456 
	C522.783447,428.907745 525.390808,426.536713 527.335266,426.141235 
	C534.684265,424.646484 543.520447,433.315002 542.389954,440.755310 
	C542.111328,442.589508 540.548889,445.319824 539.138123,445.627411 
	C537.168823,446.056763 534.787598,444.596680 532.368774,443.614136 
z"/>
</svg>