<svg xmlns="http://www.w3.org/2000/svg" viewBox="0 0 256 256" style="enable-background:new 0 0 256 256" xml:space="preserve"><style>.st2{fill:none;stroke:#6b1d1d;stroke-width:.5;stroke-miterlimit:10}.st3{fill:#3a312a}.st8{fill:#f16c7a}.st14{fill:#d7e057}.st17{fill:#b9c239}</style><g id="Layer_1"><path class="st8" d="M206.153 43.585h-29.557v9.651h24.731v6.458c0 14.018-10.938 25.535-24.731 26.452v3.08c0 2.244-.153 4.456-.466 6.611 19.334-.7 34.849-16.64 34.849-36.144V48.411a4.83 4.83 0 0 0-4.826-4.826z"/><path class="st3" d="M176.13 97.338a1.5 1.5 0 0 1-1.485-1.716c.299-2.059.451-4.21.451-6.395v-3.081a1.5 1.5 0 0 1 1.4-1.497c13.083-.87 23.331-11.831 23.331-24.956v-4.958h-23.231a1.5 1.5 0 0 1-1.5-1.5v-9.651a1.5 1.5 0 0 1 1.5-1.5h29.557a6.333 6.333 0 0 1 6.326 6.326v11.284a37.531 37.531 0 0 1-36.295 37.643l-.054.001zm1.967-9.823v1.712c0 1.693-.086 3.37-.256 5.004 17.88-1.536 31.638-16.381 31.638-34.537V48.411a3.33 3.33 0 0 0-3.326-3.326h-28.057v6.651h23.231a1.5 1.5 0 0 1 1.5 1.5v6.458c.001 14.227-10.753 26.185-24.73 27.821z"/><path class="st8" d="M82.095 89.227v-3.08c-13.793-.917-24.731-12.434-24.731-26.453v-6.458h24.731v-9.651H52.539a4.83 4.83 0 0 0-4.826 4.826v11.284c0 19.503 15.514 35.444 34.849 36.144a45.908 45.908 0 0 1-.467-6.612z"/><path class="st3" d="m82.562 97.338-.054-.001a37.531 37.531 0 0 1-36.295-37.643V48.411a6.333 6.333 0 0 1 6.326-6.326h29.557a1.5 1.5 0 0 1 1.5 1.5v9.651a1.5 1.5 0 0 1-1.5 1.5H58.864v4.958c0 13.125 10.248 24.086 23.331 24.956.788.052 1.4.706 1.4 1.497v3.081c0 2.188.152 4.34.451 6.395a1.502 1.502 0 0 1-1.484 1.715zM52.539 45.085a3.33 3.33 0 0 0-3.326 3.326v11.284c0 18.156 13.758 33.001 31.638 34.537a48.7 48.7 0 0 1-.255-5.004v-1.712c-13.977-1.636-24.731-13.594-24.731-27.82v-6.458a1.5 1.5 0 0 1 1.5-1.5h23.231v-6.651H52.539z"/><path class="st14" d="M140.338 136.452v20.152h-21.984v-20.152c.388.015.784.022 1.172.022h19.639c.389 0 .784-.007 1.173-.022z"/><path class="st3" d="M140.338 158.105h-21.984a1.5 1.5 0 0 1-1.5-1.5v-20.152c0-.408.166-.798.459-1.081a1.539 1.539 0 0 1 1.097-.419c.369.014.746.021 1.116.021h19.639c.37 0 .746-.006 1.116-.021a1.5 1.5 0 0 1 1.557 1.5v20.152a1.5 1.5 0 0 1-1.5 1.5zm-20.484-3h18.984v-17.13h-18.984v17.13z"/><path class="st8" d="M162.439 168.456H96.253v-.362c0-6.347 5.145-11.492 11.492-11.492h43.202c6.347 0 11.492 5.145 11.492 11.492v.362z"/><path class="st3" d="M162.439 169.956H96.253a1.5 1.5 0 0 1-1.5-1.5v-.362c0-7.164 5.828-12.992 12.992-12.992h43.202c7.164 0 12.992 5.828 12.992 12.992v.362a1.5 1.5 0 0 1-1.5 1.5zm-64.622-3h63.057c-.566-4.976-4.803-8.855-9.928-8.855h-43.202c-5.124.001-9.36 3.879-9.927 8.855z"/><path class="st8" d="M163.295 168.456H95.397c-6.347 0-11.492 5.145-11.492 11.492v.362h90.882v-.362c0-6.347-5.145-11.492-11.492-11.492z"/><path class="st3" d="M174.787 181.81H83.905a1.5 1.5 0 0 1-1.5-1.5v-.362c0-7.164 5.828-12.992 12.992-12.992h67.898c7.164 0 12.992 5.828 12.992 12.992v.362a1.5 1.5 0 0 1-1.5 1.5zm-89.318-3h87.753c-.566-4.976-4.803-8.854-9.928-8.854H95.397c-5.125 0-9.361 3.879-9.928 8.854z"/><path class="st14" d="M176.597 34.242v64.801c0 20.672-16.759 37.431-37.431 37.431h-19.639c-20.672 0-37.431-16.759-37.431-37.431V34.242h94.501z"/><path class="st3" d="M139.165 137.974h-19.639c-21.467 0-38.931-17.464-38.931-38.931V34.242a1.5 1.5 0 0 1 1.5-1.5h94.502a1.5 1.5 0 0 1 1.5 1.5v64.801c0 21.467-17.465 38.931-38.932 38.931zM83.595 35.742v63.301c0 19.812 16.119 35.931 35.931 35.931h19.639c19.812 0 35.931-16.119 35.931-35.931V35.742H83.595z"/><path class="st14" d="M101.952 16.655H83.298a6.805 6.805 0 0 0-6.805 6.805v3.977a6.805 6.805 0 0 0 6.805 6.805h92.095a6.805 6.805 0 0 0 6.805-6.805V23.46a6.805 6.805 0 0 0-6.805-6.805h-73.441z"/><path class="st3" d="M175.394 35.742H83.298c-4.579 0-8.305-3.726-8.305-8.305V23.46c0-4.58 3.726-8.305 8.305-8.305h18.654a1.5 1.5 0 1 1 0 3H83.298a5.311 5.311 0 0 0-5.305 5.305v3.977a5.311 5.311 0 0 0 5.305 5.305h92.095a5.311 5.311 0 0 0 5.305-5.305V23.46a5.311 5.311 0 0 0-5.305-5.305h-60.654a1.5 1.5 0 1 1 0-3h60.654c4.579 0 8.305 3.726 8.305 8.305v3.977c.001 4.58-3.725 8.305-8.304 8.305z"/><circle transform="rotate(-45.001 129.712 84.074)" cx="129.712" cy="84.072" style="fill:#87796f" r="30.045"/><path class="st3" d="M129.712 115.617c-17.394 0-31.545-14.151-31.545-31.544 0-17.394 14.151-31.545 31.545-31.545 17.394 0 31.544 14.151 31.544 31.545.001 17.393-14.15 31.544-31.544 31.544zm0-60.089c-15.74 0-28.545 12.805-28.545 28.545 0 15.739 12.805 28.544 28.545 28.544 15.739 0 28.544-12.805 28.544-28.544.001-15.74-12.804-28.545-28.544-28.545z"/><path d="m131.458 65.004 5.009 10.15c.283.574.831.973 1.465 1.065l11.201 1.628c1.596.232 2.234 2.194 1.079 3.32l-8.105 7.901a1.946 1.946 0 0 0-.56 1.723l1.913 11.156c.273 1.59-1.396 2.802-2.824 2.052l-10.019-5.267a1.946 1.946 0 0 0-1.811 0l-10.019 5.267c-1.428.751-3.097-.462-2.824-2.052l1.913-11.156a1.947 1.947 0 0 0-.56-1.723l-8.105-7.901c-1.155-1.126-.518-3.088 1.079-3.32l11.201-1.628a1.943 1.943 0 0 0 1.465-1.065l5.009-10.15c.716-1.446 2.779-1.446 3.493 0z" style="fill:#fae6ca"/><path class="st3" d="M141.545 105.724a3.45 3.45 0 0 1-1.606-.399l-10.019-5.267a.448.448 0 0 0-.415 0l-10.018 5.267a3.423 3.423 0 0 1-3.629-.262 3.424 3.424 0 0 1-1.371-3.371l1.914-11.156a.45.45 0 0 0-.128-.396l-8.105-7.9a3.427 3.427 0 0 1-.872-3.533 3.426 3.426 0 0 1 2.782-2.345l11.201-1.628a.444.444 0 0 0 .336-.244l5.009-10.15a3.426 3.426 0 0 1 3.091-1.921h.001c1.321 0 2.505.736 3.09 1.921l5.009 10.149c.065.132.19.223.335.244l11.202 1.628a3.425 3.425 0 0 1 2.782 2.345 3.426 3.426 0 0 1-.872 3.533l-8.105 7.9a.448.448 0 0 0-.128.396l1.914 11.155a3.423 3.423 0 0 1-1.371 3.37 3.443 3.443 0 0 1-2.027.664zm-11.833-8.717c.55 0 1.101.131 1.603.395l10.02 5.268c.203.106.367.04.47-.034a.421.421 0 0 0 .177-.436l-1.913-11.156a3.447 3.447 0 0 1 .992-3.05l8.105-7.9a.423.423 0 0 0 .113-.457.423.423 0 0 0-.36-.304l-11.201-1.628a3.444 3.444 0 0 1-2.594-1.884l-5.01-10.15v-.001a.422.422 0 0 0-.4-.249.422.422 0 0 0-.4.249l-5.009 10.15a3.443 3.443 0 0 1-2.596 1.885l-11.2 1.628a.423.423 0 0 0-.36.304.42.42 0 0 0 .113.458l8.105 7.9a3.448 3.448 0 0 1 .991 3.051l-1.914 11.155a.423.423 0 0 0 .178.437.424.424 0 0 0 .47.034l10.018-5.267a3.415 3.415 0 0 1 1.602-.398z"/><path class="st14" d="M67.257 118.875s3.408 12.659 13.222 13.246c0 0-13.1 4.525-13.321 14.202 0 0-2.578-13.572-12.925-14.059-.001 0 12.05-1.825 13.024-13.389z"/><path class="st3" d="M67.157 147.823a1.5 1.5 0 0 1-1.472-1.217c-.024-.124-2.495-12.418-11.523-12.843a1.5 1.5 0 0 1-.154-2.982c.441-.069 10.894-1.817 11.754-12.032a1.5 1.5 0 0 1 2.942-.265c.032.116 3.259 11.626 11.864 12.14a1.5 1.5 0 0 1 .402 2.915c-.121.042-12.118 4.311-12.313 12.819a1.5 1.5 0 0 1-1.5 1.465zm-7.742-15.73c3.878 1.969 6.231 5.746 7.587 8.876 2.026-4.021 5.942-6.787 8.949-8.427-4.135-1.842-6.783-5.651-8.334-8.722-1.793 4.36-5.271 6.869-8.202 8.273z"/><path class="st14" d="M45.558 135.855s2.411 8.954 9.352 9.369c0 0-9.266 3.201-9.422 10.045 0 0-1.824-9.6-9.142-9.944 0 .001 8.523-1.29 9.212-9.47z"/><path class="st3" d="M45.487 156.77a1.5 1.5 0 0 1-1.473-1.22c-.016-.082-1.704-8.442-7.739-8.726a1.5 1.5 0 0 1-.154-2.982c.296-.047 7.364-1.243 7.942-8.113a1.5 1.5 0 0 1 2.942-.266c.021.079 2.228 7.919 7.993 8.264a1.5 1.5 0 0 1 .401 2.915c-.081.028-8.282 2.953-8.412 8.662a1.5 1.5 0 0 1-1.5 1.466zm-4.519-11.527c2.107 1.332 3.523 3.394 4.447 5.28 1.376-2.233 3.515-3.872 5.364-4.973-2.287-1.269-3.884-3.35-4.941-5.223-1.173 2.286-3.014 3.875-4.87 4.916z"/><path class="st14" d="M45.558 109.198s2.411 8.954 9.352 9.37c0 0-9.266 3.201-9.422 10.045 0 0-1.824-9.6-9.142-9.944 0 0 8.523-1.292 9.212-9.471z"/><path class="st3" d="M45.487 130.113a1.5 1.5 0 0 1-1.473-1.22c-.016-.082-1.704-8.442-7.739-8.726a1.5 1.5 0 0 1-.155-2.982c.296-.047 7.364-1.243 7.942-8.114a1.5 1.5 0 0 1 2.942-.266c.021.079 2.228 7.92 7.994 8.265a1.5 1.5 0 0 1 .4 2.915c-.081.028-8.282 2.952-8.412 8.662a1.501 1.501 0 0 1-1.499 1.466zm-4.519-11.528c2.107 1.333 3.523 3.395 4.447 5.28 1.376-2.232 3.515-3.871 5.365-4.972-2.287-1.27-3.884-3.35-4.941-5.224-1.174 2.286-3.015 3.875-4.871 4.916z"/><path d="M87.074 239.345h125.612a6.968 6.968 0 0 0 6.968-6.968v-16.034a6.968 6.968 0 0 0-6.968-6.968H45.314a6.968 6.968 0 0 0-6.968 6.968v16.034a6.968 6.968 0 0 0 6.968 6.968h41.76z" style="fill:#8ac6dd"/><path class="st3" d="M212.686 240.845H87.074a1.5 1.5 0 1 1 0-3h125.612a5.473 5.473 0 0 0 5.467-5.467v-16.034a5.474 5.474 0 0 0-5.467-5.468H45.314a5.474 5.474 0 0 0-5.468 5.468v16.034a5.473 5.473 0 0 0 5.468 5.467h28.971a1.5 1.5 0 1 1 0 3H45.314c-4.669 0-8.468-3.798-8.468-8.467v-16.034c0-4.669 3.799-8.468 8.468-8.468h167.372c4.669 0 8.467 3.799 8.467 8.468v16.034c.001 4.668-3.798 8.467-8.467 8.467z"/><path class="st8" d="M150.05 209.376h37.624v29.969H150.05z"/><path class="st3" d="M187.674 240.845H150.05a1.5 1.5 0 0 1-1.5-1.5v-29.97a1.5 1.5 0 0 1 1.5-1.5h37.623a1.5 1.5 0 0 1 1.5 1.5v29.97c.001.829-.671 1.5-1.499 1.5zm-36.124-3h34.623v-26.97H151.55v26.97z"/><path d="M199.676 187.623v14.784a6.968 6.968 0 0 1-6.968 6.968H60.314a6.968 6.968 0 0 1-6.968-6.968v-14.784a6.968 6.968 0 0 1 6.968-6.968h132.394a6.968 6.968 0 0 1 6.968 6.968z" style="fill:#fce8cb"/><path class="st3" d="M192.708 210.875H60.313c-4.669 0-8.467-3.799-8.467-8.468v-14.785c0-4.669 3.798-8.468 8.467-8.468h132.395c4.669 0 8.468 3.799 8.468 8.468v14.785c0 4.669-3.799 8.468-8.468 8.468zm-132.395-28.72a5.473 5.473 0 0 0-5.467 5.468v14.785a5.474 5.474 0 0 0 5.467 5.468h132.395a5.474 5.474 0 0 0 5.468-5.468v-14.785a5.474 5.474 0 0 0-5.468-5.468H60.313z"/><path class="st14" d="M142.347 180.655h30.987v28.721h-30.987z"/><path class="st3" d="M173.334 210.876h-30.987a1.5 1.5 0 0 1-1.5-1.5v-28.721a1.5 1.5 0 0 1 1.5-1.5h30.987a1.5 1.5 0 0 1 1.5 1.5v28.721a1.5 1.5 0 0 1-1.5 1.5zm-29.487-3h27.987v-25.721h-27.987v25.721z"/><path class="st17" d="M160.096 35.745v39.85c.76 2.7 1.16 5.54 1.16 8.48 0 2.94-.4 5.78-1.16 8.48v6.49c0 19.81-16.12 35.93-35.93 35.93h15c19.81 0 35.93-16.12 35.93-35.93v-63.3h-15zM180.696 23.465v3.97c0 2.93-2.38 5.31-5.3 5.31h-15c2.92 0 5.3-2.38 5.3-5.31v-3.97c0-2.93-2.38-5.31-5.3-5.31h15c2.92 0 5.3 2.38 5.3 5.31z"/></g></svg>